<?xml version="1.0" encoding="UTF-8"?>
<svg version="1.1" xmlns="http://www.w3.org/2000/svg" width="2000" height="357">
<path d="M0 0 C1.25876953 1.29357422 1.25876953 1.29357422 2.54296875 2.61328125 C3.20683594 3.27972656 3.87070313 3.94617188 4.5546875 4.6328125 C26.61119076 28.17627104 29.3062187 60.47882993 28.67480469 91.04394531 C27.78111512 115.23976275 19.94640784 139.45345097 3.54296875 157.61328125 C2.87910156 158.36996094 2.21523437 159.12664062 1.53125 159.90625 C-12.03068569 174.47091661 -32.23305795 183.67598789 -52.06811523 184.75537109 C-76.19408626 185.55329207 -97.14183896 182.52491099 -116.24609375 166.765625 C-119.18287799 163.90667073 -121.78971367 160.72515176 -124.45703125 157.61328125 C-124.78703125 187.97328125 -125.11703125 218.33328125 -125.45703125 249.61328125 C-144.59703125 249.61328125 -163.73703125 249.61328125 -183.45703125 249.61328125 C-183.45703125 161.17328125 -183.45703125 72.73328125 -183.45703125 -18.38671875 C-168.27703125 -18.38671875 -153.09703125 -18.38671875 -137.45703125 -18.38671875 C-137.12703125 -4.52671875 -136.79703125 9.33328125 -136.45703125 23.61328125 C-133.81703125 18.66328125 -131.17703125 13.71328125 -128.45703125 8.61328125 C-116.00866259 -9.28667425 -97.64285267 -19.5001872 -76.45703125 -23.38671875 C-48.78666676 -27.72716808 -19.96836843 -19.81625482 0 0 Z M-116.45703125 41.61328125 C-126.152697 53.35517232 -127.78238862 66.67586286 -127.89453125 81.36328125 C-127.90476318 82.39211426 -127.91499512 83.42094727 -127.92553711 84.48095703 C-127.76556188 98.47599257 -124.12562756 110.94707392 -114.51953125 121.30078125 C-102.87984237 132.42070053 -89.01421336 136.25830713 -73.20703125 135.92578125 C-61.8193578 135.38437047 -54.05704384 130.67995931 -45.83203125 123.23828125 C-31.75001639 107.67394904 -29.49128181 90.74591023 -30.26171875 70.43847656 C-31.11164971 58.14422525 -36.71860592 45.35170658 -45.45703125 36.61328125 C-67.40751621 18.78587486 -97.01043911 20.92239163 -116.45703125 41.61328125 Z " fill="#CD69C8" transform="translate(1055.45703125,100.38671875)"/>
<path d="M0 0 C119.76732874 0 119.76732874 0 134.75 4.25 C135.53383057 4.46615967 136.31766113 4.68231934 137.12524414 4.9050293 C159.17463746 11.21160096 179.15100334 24.28006299 190.9765625 44.35546875 C199.27629055 60.26622401 202.40300927 76.40027849 202.3125 94.25 C202.30686035 95.42731689 202.3012207 96.60463379 202.29541016 97.81762695 C201.94915141 122.82196539 194.75784864 143.94065987 177 162 C176.31292969 162.69996094 175.62585937 163.39992187 174.91796875 164.12109375 C155.11168539 182.97197198 126.12077157 189.22050099 99.625 189.09765625 C98.59117188 189.09664917 97.55734375 189.09564209 96.4921875 189.09460449 C92.66144691 189.08940579 88.83072224 189.07544473 85 189.0625 C76.42 189.041875 67.84 189.02125 59 189 C59 213.75 59 238.5 59 264 C39.53 264 20.06 264 0 264 C0 176.88 0 89.76 0 0 Z M59 52 C59 80.38 59 108.76 59 138 C98.55368844 140.67137169 98.55368844 140.67137169 131.69140625 124.375 C139.62421169 115.78609787 142.55381039 104.27784745 142.24609375 92.765625 C141.13497668 80.27878559 137.87469241 70.30057357 128.625 61.625 C118.83834304 53.49404213 108.96816074 51.67925527 96.5 51.8046875 C95.06720703 51.80770874 95.06720703 51.80770874 93.60546875 51.81079102 C90.07026297 51.82117877 86.53512617 51.8491008 83 51.875 C75.08 51.91625 67.16 51.9575 59 52 Z " fill="#B268D9" transform="translate(1201,15)"/>
<path d="M0 0 C19.14 0 38.28 0 58 0 C58.33 51.15 58.66 102.3 59 155 C66.425 145.1 66.425 145.1 74 135 C80.9375 126.0625 80.9375 126.0625 84.3828125 121.65234375 C92.58359199 111.13277006 100.6527573 100.50625042 108.625 89.8125 C112.52122186 84.59732366 116.50494656 79.45207955 120.5 74.3125 C121.43706787 73.10654175 121.43706787 73.10654175 122.39306641 71.8762207 C126.87122542 66.12877458 126.87122542 66.12877458 128 65 C129.90243762 64.90608704 131.80838459 64.88256342 133.71313477 64.88647461 C134.9343251 64.88655014 136.15551544 64.88662567 137.41371155 64.88670349 C138.75627686 64.89181089 140.09884175 64.89702689 141.44140625 64.90234375 C142.80761158 64.90420801 144.17381757 64.90563187 145.5400238 64.90663147 C149.14201695 64.91045606 152.74397 64.92028583 156.34594727 64.93133545 C160.01903745 64.94155084 163.69213409 64.94612936 167.36523438 64.95117188 C174.57684123 64.96190816 181.788415 64.97898386 189 65 C187.28203695 68.57956532 185.19866893 71.48713617 182.75 74.625 C182.31598877 75.18348633 181.88197754 75.74197266 181.43481445 76.31738281 C179.95977045 78.21412525 178.47989247 80.10703865 177 82 C174.72782797 84.915625 172.45771705 87.83285267 170.1875 90.75 C169.59291992 91.51328613 168.99833984 92.27657227 168.38574219 93.06298828 C164.39686149 98.18832367 160.43822526 103.33566672 156.5 108.5 C152.56169303 113.66444043 148.6038482 118.8125657 144.61328125 123.93676758 C143.42479075 125.4634687 142.2385432 126.99191889 141.0546875 128.5222168 C138.35709156 132.00469999 135.6380534 135.45816418 132.82421875 138.84765625 C132.34428467 139.43708008 131.86435059 140.02650391 131.36987305 140.63378906 C130.09217809 142.19954035 128.79674275 143.75076843 127.5 145.30078125 C127.005 146.19152344 126.51 147.08226562 126 148 C127.04475174 151.4201618 128.63041849 154.15766155 130.6953125 157.0546875 C131.23800781 157.82232422 131.78070312 158.58996094 132.33984375 159.38085938 C132.92894531 160.20392578 133.51804687 161.02699219 134.125 161.875 C135.39890035 163.67415153 136.67231906 165.47364417 137.9453125 167.2734375 C138.61079102 168.21155273 139.27626953 169.14966797 139.96191406 170.11621094 C143.33644016 174.89099559 146.66661121 179.69645141 150 184.5 C154.98688737 191.67590245 159.98491753 198.84377502 165 206 C170.68803129 214.116483 176.35395579 222.24813445 182.00610352 230.38964844 C185.35049961 235.20414018 188.70693039 240.00935069 192.08984375 244.796875 C192.73759766 245.71533203 193.38535156 246.63378906 194.05273438 247.58007812 C195.28138773 249.32056427 196.51301816 251.0589538 197.74804688 252.79492188 C198.29396484 253.56900391 198.83988281 254.34308594 199.40234375 255.140625 C199.88179443 255.81641602 200.36124512 256.49220703 200.85522461 257.18847656 C202 259 202 259 203 262 C194.63804305 262.49002166 186.28220413 262.86124212 177.90937614 263.08805561 C174.01917717 263.19702898 170.13888304 263.34415155 166.25439453 263.58422852 C141.41575248 265.07801944 141.41575248 265.07801944 134.3560791 260.15704346 C129.82115427 255.36014089 127.04751264 249.76331249 124.3394165 243.79598999 C122.30736791 239.55415221 119.65486351 235.83975248 116.9375 232.015625 C115.95435403 230.56904322 114.97462091 229.12013613 113.99829102 227.66894531 C111.92972251 224.61514319 109.85015273 221.56912702 107.76538086 218.52636719 C102.86071502 211.34588299 98.02915411 204.16015137 93.55947876 196.69854736 C91.70054372 193.59803549 89.79940807 190.52436563 87.89672852 187.45056152 C87.01852861 186.00213428 86.16256822 184.53994861 85.33129883 183.06408691 C84.93644287 182.36392456 84.54158691 181.66376221 84.13476562 180.94238281 C83.79892456 180.32969543 83.4630835 179.71700806 83.11706543 179.08575439 C81.08051255 176.12857639 78.46768113 173.60825597 76 171 C70.06 170.67 64.12 170.34 58 170 C58 200.36 58 230.72 58 262 C38.86 262 19.72 262 0 262 C0 175.54 0 89.08 0 0 Z " fill="#8066F6" transform="translate(1775,17)"/>
<path d="M0 0 C15.8951238 16.27293659 22.42342517 33.82719585 24.30078125 56.35546875 C5.49078125 56.35546875 -13.31921875 56.35546875 -32.69921875 56.35546875 C-34.01921875 52.06546875 -35.33921875 47.77546875 -36.69921875 43.35546875 C-41.94295693 35.08201518 -48.06671776 28.92158233 -57.69921875 26.35546875 C-68.89798323 24.11571585 -80.63209922 24.8661027 -90.51171875 31.04296875 C-102.51724406 39.90057151 -107.19405347 51.99469266 -109.69921875 66.35546875 C-110.10864983 70.96964494 -110.17712547 75.53755061 -110.13671875 80.16796875 C-110.12914551 81.3912085 -110.12157227 82.61444824 -110.11376953 83.87475586 C-109.83285248 99.34467323 -107.06125949 114.5527907 -95.51171875 125.79296875 C-86.86653744 132.9073844 -75.70222158 135.11155213 -64.69921875 134.35546875 C-54.79784075 133.21737932 -45.98802695 129.66848216 -39.1640625 122.234375 C-35.09423522 117.01414321 -33.27903149 111.59874752 -32.09375 105.140625 C-31.69921875 103.35546875 -31.69921875 103.35546875 -30.69921875 102.35546875 C-28.94993155 102.26181869 -27.19685621 102.23802437 -25.44506836 102.24194336 C-24.32398178 102.24201889 -23.2028952 102.24209442 -22.0478363 102.24217224 C-20.21818077 102.24991417 -20.21818077 102.24991417 -18.3515625 102.2578125 C-16.48921715 102.25993492 -16.48921715 102.25993492 -14.58924866 102.26210022 C-11.28316384 102.26676284 -7.97714729 102.27575378 -4.67108154 102.2868042 C-1.29960725 102.29702048 2.07187408 102.3015983 5.44335938 102.30664062 C12.062519 102.3176948 18.68164618 102.33445139 25.30078125 102.35546875 C25.31979988 103.93761551 25.33328514 105.51982933 25.34448242 107.10205078 C25.35259445 107.98313507 25.36070648 108.86421936 25.36906433 109.77200317 C24.84346633 129.65781259 13.08068961 148.71275987 -0.95703125 162.05078125 C-23.44775489 180.95324129 -51.70169748 187.08888192 -80.52880859 184.90625 C-106.94261128 182.43359784 -130.73298424 171.16820913 -147.984375 150.62890625 C-168.56508313 123.34423169 -172.49549985 89.91191181 -168.09716797 56.90283203 C-165.3373958 39.23690392 -158.12937215 22.13515368 -146.69921875 8.35546875 C-145.961875 7.44410156 -145.22453125 6.53273437 -144.46484375 5.59375 C-127.95993174 -13.74288711 -104.61339299 -23.16324123 -79.63671875 -25.51953125 C-50.24631019 -26.66732235 -21.87504116 -20.80098022 0 0 Z " fill="#9267EC" transform="translate(1713.69921875,100.64453125)"/>
<path d="M0 0 C67.98 0 135.96 0 206 0 C206 17.16 206 34.32 206 52 C181.91 52 157.82 52 133 52 C133 121.3 133 190.6 133 262 C113.2 262 93.4 262 73 262 C73 192.7 73 123.4 73 52 C48.91 52 24.82 52 0 52 C0 34.84 0 17.68 0 0 Z " fill="#F66BB0" transform="translate(375,17)"/>
<path d="M0 0 C0 16.5 0 33 0 50 C-7.92 50.33 -15.84 50.66 -24 51 C-36.13849576 52.97120871 -46.2983452 56.71596392 -54.28125 66.44921875 C-61.52801061 77.20407028 -63.29072212 89.36882896 -63.31884766 102.04931641 C-63.33391609 103.63158524 -63.33391609 103.63158524 -63.34928894 105.24581909 C-63.37993286 108.69772852 -63.39710359 112.14956107 -63.4140625 115.6015625 C-63.43278927 118.00866346 -63.45236379 120.41575796 -63.4727478 122.82284546 C-63.52391548 129.13230569 -63.56362327 135.44178717 -63.60089111 141.75134277 C-63.64809455 149.33568021 -63.70962622 156.91991348 -63.76873779 164.50416565 C-63.85676256 176.0027347 -63.92666144 187.50128568 -64 199 C-83.14 199 -102.28 199 -122 199 C-122 133.99 -122 68.98 -122 2 C-106.82 2 -91.64 2 -76 2 C-75.67 19.16 -75.34 36.32 -75 54 C-73.02 48.06 -71.04 42.12 -69 36 C-60.95501705 20.06474531 -49.90659758 8.7529307 -32.8984375 2.82421875 C-20.74414881 -0.63205472 -13.92565443 0 0 0 Z " fill="#E96AB8" transform="translate(724,80)"/>
<path d="M0 0 C8.9289438 6.68257978 14.2695165 16.0339599 16.2890625 27.0234375 C17.99389847 43.71497104 12.12713445 55.18697858 2 68 C0.57122578 69.83853096 -0.85585668 71.67837788 -2.28125 73.51953125 C-2.97089844 74.40850098 -3.66054687 75.2974707 -4.37109375 76.21337891 C-7.7778269 80.66458079 -10.99261014 85.24351489 -14.19921875 89.83984375 C-15.24529297 91.28037109 -15.24529297 91.28037109 -16.3125 92.75 C-16.9725 93.78793701 -17.6325 94.82587402 -18.3125 95.89526367 C-19.98914514 97.87824235 -20.91552117 98.65292311 -23.45918274 99.27494812 C-26.13343439 99.44475636 -28.74770652 99.42486046 -31.42578125 99.3359375 C-32.28570679 99.32989502 -33.14563232 99.32385254 -34.03161621 99.31762695 C-37.22990236 99.28634167 -40.42750166 99.20257197 -43.625 99.125 C-50.781875 99.00125 -57.93875 98.8775 -65.3125 98.75 C-65.3125 123.83 -65.3125 148.91 -65.3125 174.75 C-36.9325 174.75 -8.5525 174.75 20.6875 174.75 C20.6875 194.88 20.6875 215.01 20.6875 235.75 C-3.79963058 235.99841865 -28.28573928 236.20100059 -52.77381039 236.31993389 C-64.14434391 236.37662732 -75.51403832 236.4539026 -86.8840332 236.57983398 C-96.79551955 236.68955883 -106.70639819 236.76046005 -116.61847502 236.78497344 C-121.86604877 236.79930101 -127.1118842 236.83290737 -132.35890007 236.91303062 C-137.30146437 236.98789091 -142.24158066 237.01069103 -147.18465805 236.99418449 C-148.9951402 236.99720238 -150.80570703 237.01897629 -152.61569786 237.06126022 C-166.26315556 237.36435364 -166.26315556 237.36435364 -171.31947517 233.3812809 C-173.62185284 230.60695389 -175.47995891 227.84883305 -177.3125 224.75 C-178.46880401 223.18143088 -179.63905666 221.62289454 -180.83203125 220.08203125 C-181.93252977 218.57759584 -183.03014938 217.07105063 -184.125 215.5625 C-185.33792754 213.90319674 -186.55147938 212.24434967 -187.765625 210.5859375 C-188.65991211 209.36342285 -188.65991211 209.36342285 -189.57226562 208.11621094 C-191.66454255 205.27132486 -193.78350168 202.44752753 -195.91064453 199.62866211 C-197.87099963 197.02999866 -199.81917854 194.42232753 -201.76660156 191.81396484 C-202.84528645 190.37378765 -203.92831727 188.93685976 -205.01464844 187.50244141 C-218.26521775 169.97357889 -225.50156831 154.0668337 -223.3125 131.75 C-221.59108229 121.71926424 -217.44561857 112.85684356 -211.3125 104.75 C-210.76722656 104.02296875 -210.22195312 103.2959375 -209.66015625 102.546875 C-200.18414811 90.86351437 -185.54842168 83.71802257 -170.75 82 C-153.9145357 80.86644006 -139.19227535 86.04796445 -126.3125 96.75 C-125.66667969 97.27078125 -125.02085938 97.7915625 -124.35546875 98.328125 C-113.52571819 108.00889525 -107.903321 123.50513084 -106.375 137.5625 C-105.38220096 161.15454042 -117.2106661 177.29300522 -131.22998047 195.07763672 C-134.57091476 199.36484267 -137.78781746 203.7409449 -141 208.125 C-141.56348145 208.89110596 -142.12696289 209.65721191 -142.70751953 210.4465332 C-145.94561256 214.85673571 -149.13174219 219.29693907 -152.3125 223.75 C-99.1825 223.75 -46.0525 223.75 8.6875 223.75 C8.6875 211.54 8.6875 199.33 8.6875 186.75 C-19.6925 186.75 -48.0725 186.75 -77.3125 186.75 C-77.3125 153.75 -77.3125 120.75 -77.3125 86.75 C-64.4425 86.42 -51.5725 86.09 -38.3125 85.75 C-40.4575 82.841875 -42.6025 79.93375 -44.8125 76.9375 C-46.10182446 75.18378631 -47.39094037 73.42991925 -48.6796875 71.67578125 C-50.7298897 68.88854032 -52.78820836 66.1094853 -54.8828125 63.35546875 C-64.09074164 51.11907622 -66.73891789 39.95097964 -65.3125 24.75 C-62.85782538 13.33875653 -56.22363144 5.06337014 -46.875 -1.6875 C-32.00143074 -10.70875421 -14.3026688 -9.28717127 0 0 Z M-40.3125 8.75 C-40.93640625 9.13929687 -41.5603125 9.52859375 -42.203125 9.9296875 C-47.9233304 14.13279494 -51.11937881 20.10089054 -53.3125 26.75 C-54.70731178 36.39656088 -53.19367548 44.8186823 -47.83349609 53.01025391 C-46.17221863 55.22345744 -44.45052368 57.36707111 -42.6875 59.5 C-41.44043091 61.0528613 -40.19566263 62.60757294 -38.953125 64.1640625 C-38.34017578 64.92879883 -37.72722656 65.69353516 -37.09570312 66.48144531 C-34.43302054 69.86885586 -31.9216969 73.3554918 -29.4375 76.875 C-29.0151709 77.47280273 -28.5928418 78.07060547 -28.15771484 78.68652344 C-27.20601616 80.0387034 -26.25868064 81.39395309 -25.3125 82.75 C-20.40357075 78.18488681 -16.47833632 72.95739335 -12.4375 67.625 C-11.75558594 66.738125 -11.07367188 65.85125 -10.37109375 64.9375 C1.76245179 49.53596099 1.76245179 49.53596099 4.6875 30.75 C2.70686752 20.613822 -2.02637133 14.0228713 -10.28515625 7.9765625 C-19.44616791 2.43406219 -31.36624376 3.06018103 -40.3125 8.75 Z M-196.6640625 105.94921875 C-206.88247961 117.11199194 -212.11172197 129.04493843 -211.83203125 144.20385742 C-210.93635301 162.87914858 -198.39309198 176.09303069 -187.50390625 190.25390625 C-182.86897473 196.29895585 -178.36853544 202.4398828 -173.91748047 208.62133789 C-170.96409982 212.68123279 -167.98185098 216.31891857 -164.3125 219.75 C-163.5596875 218.69425781 -162.806875 217.63851562 -162.03125 216.55078125 C-155.8842785 207.96780954 -149.62316378 199.49397654 -143.1875 191.125 C-123.63880152 167.20753445 -123.63880152 167.20753445 -118.3125 137.75 C-120.49334469 123.67530484 -126.45060821 111.48818399 -137.953125 102.7421875 C-156.13352729 90.60499156 -180.09711015 90.31163202 -196.6640625 105.94921875 Z " fill="#CE6DDC" transform="translate(242.3125,61.25)"/>
<path d="M0 0 C27.72 0 55.44 0 84 0 C84 65.01 84 130.02 84 197 C64.86 197 45.72 197 26 197 C26 146.18 26 95.36 26 43 C17.09 43 8.18 43 -1 43 C-1.02290595 37.0368177 -1.04283396 31.07378689 -1.05493164 25.1105957 C-1.05997278 23.08031702 -1.06680557 21.05004198 -1.07543945 19.01977539 C-1.08751467 16.10822653 -1.09323034 13.1967255 -1.09765625 10.28515625 C-1.10281754 9.3716188 -1.10797882 8.45808136 -1.11329651 7.51686096 C-1.11349168 5.34424573 -1.06211805 3.17172704 -1 1 C-0.67 0.67 -0.34 0.34 0 0 Z " fill="#DB6AC0" transform="translate(736,82)"/>
<path d="M0 0 C27.72 0 55.44 0 84 0 C84 65.01 84 130.02 84 197 C64.86 197 45.72 197 26 197 C26 146.18 26 95.36 26 43 C17.42 43 8.84 43 0 43 C0 28.81 0 14.62 0 0 Z " fill="#9F68E4" transform="translate(1421,82)"/>
<path d="M0 0 C5.74944951 4.61756684 9.00503675 10.26962638 10.74609375 17.40234375 C11.80565002 28.44527468 11.2198042 37.48993468 4.12109375 46.21484375 C-1.85226436 52.51822164 -8.88702544 55.06158941 -17.453125 55.60546875 C-27.38317095 55.73890722 -36.38168953 55.02216236 -44.25390625 48.40234375 C-50.93821845 40.75394806 -53.68635907 33.21674588 -53.53125 23.03125 C-52.71865852 15.32879835 -50.4885288 7.37439892 -44.9453125 1.76171875 C-32.90685604 -7.91353032 -12.67861621 -8.8010515 0 0 Z " fill="#DB6AC0" transform="translate(805.25390625,8.59765625)"/>
<path d="M0 0 C5.87471252 4.76293896 9.50536461 9.95312819 10.81640625 17.47265625 C11.7437475 27.79934518 11.21826625 37.0699508 5.2265625 45.78515625 C-0.78723624 52.7016605 -8.66472733 54.97956166 -17.59375 55.77734375 C-28.41314391 56.00512046 -36.74414428 54.54931524 -45.18359375 47.47265625 C-51.21322414 41.60801574 -53.04245516 33.31088717 -53.28125 25.125 C-52.8147907 15.39761707 -50.22093282 7.3500558 -43.18359375 0.47265625 C-30.96141126 -7.64866238 -12.20228452 -8.45532038 0 0 Z " fill="#A067E4" transform="translate(1490.18359375,8.52734375)"/>
<path d="M0 0 C5.89292435 3.40122161 9.52051775 7.33647182 11.5 13.90234375 C13.06618808 21.66476341 12.74019524 27.08297177 8.9375 34.125 C3.71643048 40.6160594 -0.99952684 44.24994433 -9.5 45.25 C-16.42760827 45.63486713 -22.06513004 43.78388287 -27.390625 39.3046875 C-32.56654874 33.93303555 -35.0144153 28.144928 -35.53515625 20.71484375 C-35.25044325 14.25755289 -32.40528111 8.95568901 -28.375 4 C-20.19936464 -2.74104274 -9.79550693 -4.42953121 0 0 Z M-21.375 15 C-23.12429989 17.96620416 -23.39339954 19.55841102 -23.25 23 C-22.05392105 27.1008421 -20.19422563 29.88400444 -16.515625 32.140625 C-12.73533513 33.65825962 -9.21855827 33.16471463 -5.375 32 C-1.93412484 28.98923424 -0.62727496 26.88296237 0.625 22.5 C0.625 18.38385088 -0.06323788 16.39058444 -2.375 13 C-5.75990808 10.09865022 -8.91144821 9.40468414 -13.37890625 9.58203125 C-17.09409557 10.35996718 -18.79879365 12.23977891 -21.375 15 Z " fill="#CE6DDC" transform="translate(88.375,176)"/>
<path d="M0 0 C4.70301376 2.63613993 8.08154516 5.88719609 9.66015625 11.11328125 C10.53196907 16.66797434 10.40917289 21.55595779 7.66015625 26.55078125 C4.73481568 30.55258141 1.41635813 32.75801942 -3.33984375 34.11328125 C-9.01846169 34.95063678 -13.52565395 34.42972312 -18.33984375 31.11328125 C-22.71126075 26.77264887 -25.43918831 23.26435081 -25.65234375 16.92578125 C-25.5474673 11.06223412 -23.92943421 6.62366071 -19.6796875 2.50390625 C-13.77189562 -1.81472601 -6.85629207 -2.59829432 0 0 Z M-12.27734375 12.23828125 C-13.70051366 14.74975756 -13.76658891 16.26831353 -13.33984375 19.11328125 C-12.25651042 21.02994792 -12.25651042 21.02994792 -10.33984375 22.11328125 C-7.49487603 22.54002641 -5.97632006 22.47395116 -3.46484375 21.05078125 C-1.69202192 17.9975881 -2.64749069 15.44916417 -3.33984375 12.11328125 C-7.94993863 10.9431938 -7.94993863 10.9431938 -12.27734375 12.23828125 Z " fill="#CE6DDC" transform="translate(225.33984375,77.88671875)"/>
<path d="" fill="#DC4AF4" transform="translate(0,0)"/>
</svg>
